<?xml version="1.0" encoding="UTF-8"?><svg xmlns="http://www.w3.org/2000/svg" viewBox="0 0 369.17 205.36"><defs><style>.g,.h,.i,.j{stroke-miterlimit:10;}.g,.i{stroke-width:2.5px;}.g,.i,.k,.j{fill:#fff;}.g,.i,.j{stroke:#fff;}.l,.m,.n{fill:#010d26;}.o{fill:#6057b9;}.h{fill:none;opacity:.38;stroke:#45b8c4;stroke-width:5.19px;}.i,.m,.p,.k,.q,.j{fill-rule:evenodd;}.m,.n{opacity:.7;}.r{opacity:.75;}.p{fill:#45b8c4;}.q{fill:#0095d2;}.j{stroke-width:4.5px;}</style></defs><g id="a"><path class="h" d="M138.22,191.78c-11.42,6.2-24.51,9.73-38.42,9.73-44.51,0-80.6-36.09-80.6-80.6,0-22.34,9.08-42.55,23.76-57.15"/><path class="h" d="M57.34,52.39c12.33-7.66,26.88-12.08,42.46-12.08,27.82,0,52.35,14.1,66.84,35.54,.1,.14,.19,.29,.29,.43"/><path class="k" d="M159.68,73.88c5.28-5.17,14.77-3.78,18.51,2.48-4.61-4.52-10.31-1.38-14.76,2.83-3.65,3.44-7.85-1.29-3.75-5.31h0Z"/></g><g id="b"><path class="g" d="M35.55,162.8c3.14-9.98,5.56-27.52,8.7-60.6,1-11.12,1.85-22.39,2.14-29.94-1.57-6.56-2.14-11.55-2.14-15.54,0-9.7,3.71-12.4,6.42-12.4,1.85,0,3.14,1.28,3.14,6.56,0,2.14-.29,6.84-.29,9.98,5.99,23.38,17.54,62.02,23.81,81.13,6.13-21.53,12.69-44.2,21.25-66.59,2.28-9.55,3.99-13.26,6.27-13.26,.86,0,1.85,.57,1.85,6.27,0,1.71-.28,8.56-.28,12.26,0,18.68,.14,36.93,.86,55.75,.57,14.4,2.99,17.4,5.42,17.4,3.42,0,8.98-10.41,13.4-25.95,.28-1,.43-1.71,.71-1.71s.43,.71,.43,1.43c0,2.85-1.42,9.55-2.42,12.69-4.85,14.54-9.84,21.1-15.97,21.1-9.13,0-11.12-17.97-11.12-48.91,0-6.99,.14-15.83,.29-23.1-5.85,17.54-12.69,40.07-16.68,55.04-.86,2.99-1.57,6.13-2.14,8.55-1.14,4.99-1.85,7.41-3.71,7.41s-2.99-1.71-4.42-5.99c-4.99-15.4-15.54-50.9-20.53-69.87-2.14,68.58-5.13,91.4-24.53,91.4-5.99,0-9.55-3.28-9.55-5.99,0-1.14,.57-1.85,1.57-1.85,2,0,5.13,2.85,9.84,2.85,2.85,0,5.56-1.43,7.7-8.13Z"/><path class="g" d="M34.59,158.1c3.14-9.98,5.56-27.52,8.7-60.6,1-11.12,1.85-22.39,2.14-29.94-1.57-6.56-2.14-11.55-2.14-15.54,0-9.7,3.71-12.4,6.42-12.4,1.85,0,3.14,1.28,3.14,6.56,0,2.14-.29,6.84-.29,9.98,5.99,23.38,17.54,62.02,23.81,81.13,6.13-21.53,12.69-44.2,21.25-66.59,2.28-9.55,3.99-13.26,6.27-13.26,.86,0,1.85,.57,1.85,6.27,0,1.71-.28,8.56-.28,12.26,0,18.68,.14,36.93,.86,55.75,.57,14.4,2.99,17.4,5.42,17.4,3.42,0,8.98-10.41,13.4-25.95,.28-1,.43-1.71,.71-1.71s.43,.71,.43,1.43c0,2.85-1.42,9.55-2.42,12.69-4.85,14.54-9.84,21.1-15.97,21.1-9.13,0-11.12-17.97-11.12-48.91,0-6.99,.14-15.83,.29-23.1-5.85,17.54-12.69,40.07-16.68,55.04-.86,2.99-1.57,6.13-2.14,8.55-1.14,4.99-1.85,7.41-3.71,7.41s-2.99-1.71-4.42-5.99c-4.99-15.4-15.54-50.9-20.53-69.87-2.14,68.58-5.13,91.4-24.53,91.4-5.99,0-9.55-3.28-9.55-5.99,0-1.14,.57-1.85,1.57-1.85,2,0,5.13,2.85,9.84,2.85,2.85,0,5.56-1.43,7.7-8.13Z"/></g><g id="c"><path class="j" d="M17,29.73c23.97,.32,33.98,30.59,37.54,48.11-2.28-11.21-20.92-26.77-40.79-27.41-16.25-.52-15.38-20.95,3.25-20.7h0Z"/><path class="j" d="M37.49,19.29c-8.11,21.35,16.73,48.42,26.31,68.63-3.8-8.02-12.5-48.48-6.83-64.26,5.23-14.58-13.18-20.96-19.48-4.38h0Z"/></g><g id="d"><path class="k" d="M39.46,9.82c-9.65,22.16,15.23,52.03,24.34,73.87-3.61-8.67-10.76-51.87-3.97-68.26,6.27-15.14-12.87-22.82-20.36-5.61h0Z"/><path class="q" d="M19.08,26.98c25.42,.95,35.26,33.85,38.6,52.84-2.13-12.15-21.51-29.41-42.57-30.59-17.22-.96-15.78-22.99,3.97-22.25h0Z"/><path class="p" d="M36.24,16.42c-9.7,22.27,16.6,51.85,26.38,73.59-3.88-8.63-11.95-51.74-5.14-68.22,6.29-15.22-13.71-22.67-21.24-5.37h0Z"/></g><g id="e"><path class="i" d="M170.48,196.38c-18.33,7.99-40.96-4.68-44.41-24.12,7.31,15.87,24.74,13.41,40.05,7.07,12.53-5.19,18.6,10.84,4.36,17.05h0Z"/><g class="r"><path class="l" d="M34.61,161.45c3.3-10.5,5.85-28.95,9.15-63.75,1.05-11.7,1.95-23.55,2.25-31.5-1.65-6.9-2.25-12.15-2.25-16.35,0-10.2,3.9-13.05,6.75-13.05,1.95,0,3.3,1.35,3.3,6.9,0,2.25-.3,7.2-.3,10.5,6.3,24.6,18.45,65.25,25.05,85.35,6.45-22.65,13.35-46.5,22.35-70.05,2.4-10.05,4.2-13.95,6.6-13.95,.9,0,1.95,.6,1.95,6.6,0,1.8-.3,9-.3,12.9,0,19.65,.15,38.85,.9,58.65,.6,15.15,3.15,18.3,5.7,18.3,3.6,0,10.08-12.53,14.73-28.88,.3-1.05,.45-1.8,.75-1.8s.45,.75,.45,1.5c0,3-2.13,11.63-3.18,14.93-5.1,15.3-10.35,22.2-16.8,22.2-9.6,0-11.7-18.9-11.7-51.45,0-7.35,.15-16.65,.3-24.3-6.15,18.45-13.35,42.15-17.55,57.9-.9,3.15-1.65,6.45-2.25,9-1.2,5.25-1.95,7.8-3.9,7.8s-3.15-1.8-4.65-6.3c-5.25-16.2-16.35-53.55-21.6-73.5-2.25,72.15-5.4,96.15-25.8,96.15-6.3,0-10.05-3.45-10.05-6.3,0-1.2,.6-1.95,1.65-1.95,2.1,0,5.4,3,10.35,3,3,0,5.85-1.5,8.1-8.55Z"/></g><path class="n" d="M82.82,173.92c0-1.7,.42-3.18,1.25-4.45s2.33-2.52,4.5-3.77c-1.23-1.44-2.07-2.66-2.52-3.65s-.67-2.02-.67-3.09c0-1.97,.7-3.53,2.11-4.67,1.41-1.14,3.3-1.71,5.68-1.71s4.1,.55,5.41,1.66c1.31,1.11,1.97,2.61,1.97,4.49,0,1.48-.44,2.82-1.31,4.03s-2.34,2.41-4.39,3.62l6.74,6.5c1.05-1.39,1.93-3.43,2.63-6.11h4.71c-.91,3.69-2.36,6.69-4.36,9.02l5.86,5.67h-5.9l-2.9-2.82c-1.32,1.06-2.74,1.87-4.24,2.4s-3.16,.81-4.98,.81c-2.99,0-5.33-.71-7.03-2.12-1.7-1.41-2.55-3.35-2.55-5.8Zm9.81,3.99c2.38,0,4.41-.69,6.1-2.08l-7.46-7.34c-1.38,.88-2.32,1.71-2.84,2.48s-.78,1.65-.78,2.64c0,1.27,.45,2.31,1.35,3.11s2.11,1.2,3.63,1.2Zm-2.9-18.79c0,.82,.22,1.59,.65,2.32s1.04,1.5,1.82,2.32c1.47-.83,2.5-1.61,3.09-2.33s.89-1.53,.89-2.42c0-.84-.28-1.52-.85-2.03s-1.31-.76-2.25-.76c-1.03,0-1.84,.26-2.44,.79s-.91,1.23-.91,2.11Z"/><path class="o" d="M36.16,160.54c3.3-10.5,5.85-28.95,9.15-63.75,1.05-11.7,1.95-23.55,2.25-31.5-1.65-6.9-2.25-12.15-2.25-16.35,0-10.2,3.9-13.05,6.75-13.05,1.95,0,3.3,1.35,3.3,6.9,0,2.25-.3,7.2-.3,10.5,6.3,24.6,18.45,65.25,25.05,85.35,6.45-22.65,13.35-46.5,22.35-70.05,2.4-10.05,4.2-13.95,6.6-13.95,.9,0,1.95,.6,1.95,6.6,0,1.8-.3,9-.3,12.9,0,19.65,.15,38.85,.9,58.65,.6,15.15,3.15,18.3,5.7,18.3,3.6,0,9.45-10.95,14.1-27.3,.3-1.05,.45-1.8,.75-1.8s.45,.75,.45,1.5c0,3-1.5,10.05-2.55,13.35-5.1,15.3-10.35,22.2-16.8,22.2-9.6,0-11.7-18.9-11.7-51.45,0-7.35,.15-16.65,.3-24.3-6.15,18.45-13.35,42.15-17.55,57.9-.9,3.15-1.65,6.45-2.25,9-1.2,5.25-1.95,7.8-3.9,7.8s-3.15-1.8-4.65-6.3c-5.25-16.2-16.35-53.55-21.6-73.5-2.25,72.15-5.4,96.15-25.8,96.15-6.3,0-10.05-3.45-10.05-6.3,0-1.2,.6-1.95,1.65-1.95,2.1,0,5.4,3,10.35,3,3,0,5.85-1.5,8.1-8.55Z"/><path class="m" d="M189.68,197.64c-13.32,12.04-37.81,9.54-47.8-4.34,12.12,9.88,26.62,2.4,37.86-7.4,9.2-8.02,20.29,2.39,9.94,11.74h0Zm-.26-2.34c-4.74,5.28-14.26,9.45-23.18,8.13,10.48-1,16.55-5.7,20.78-11.3,2.88-3.81,6.83-1.77,2.39,3.17h0Z"/><path class="m" d="M173.69,175.11c-9.73,6.58-23.93,2.55-27.79-7.51,5.73,7.66,15.48,4.17,23.64-1.15,6.68-4.35,11.71,3.54,4.15,8.66h0Zm.2-1.56c-3.61,2.99-9.9,4.79-15.01,3.06,6.38,.37,10.7-2.11,14.06-5.37,2.29-2.22,4.33-.49,.95,2.31h0Z"/></g><g id="f"><g><g class="r"><path d="M149.72,73.2c1.05,0,1.64,.71,1.64,3.23,0,1.62-.23,3.43-.7,5.65,0,0,.47,15.14,1.76,24.84,1.64-26.05,2.11-30.08,6.56-30.08,1.52,0,5.15,1.21,7.49,2.02,2.93,1.11,3.51,1.82,3.51,2.73,0,1.21-2.34,2.52-6.2,2.52-2.46,0-5.39-.81-6.44-1.62-.82,4.95-1.41,10.7-2.58,29.28-.23,3.74-1.29,4.64-2.81,4.64-4.57,0-7.14-11.41-7.61-29.28-4.45,3.23-9.72,6.46-16.51,9.99-1.41,.81-3.28,1.51-4.57,1.51h-.59c0,10.8,3.16,15.35,7.73,15.35,5.15,0,6.56-4.85,6.67-12.01,0-2.73,.12-3.53,1.29-3.53s1.87,.91,1.87,2.62c0,12.42-5.15,17.26-12.76,17.26-5.97,0-11-3.94-11-16.46,0-8.88,2.22-18.58,5.97-24.43-1.41-.61-1.64-.81-1.64-1.51,0-1.31,2.11-2.42,4.21-2.42,7.03,0,11.12,3.33,11.12,9.59,0,2.52-.7,5.35-2.11,7.87,3.75-2.12,7.49-4.34,10.42-6.87,.94-8.08,3.51-10.9,5.27-10.9Zm-27.04,23.12c1.05-.71,3.28-1.92,7.26-3.84,.59-2.22,1.05-4.44,1.05-6.56,0-4.04-1.52-5.35-5.74-7.57-1.41,3.84-2.46,11.71-2.58,17.97Z"/><path d="M206.26,110.45c0-4.95,.82-20.09,.82-24.63,0-3.63-.23-5.25-1.76-5.25-2.34,0-5.5,10.5-8.31,23.83v8.08c0,3.03-.94,4.04-2.11,4.04-2.46,0-4.92-2.32-4.92-6.36,0-1.72,.35-3.74,.7-5.75,0-14.74-.35-25.04-2.22-25.04-2.34,0-6.79,11.61-9.48,24.43,0,0,.23,3.43,.23,7.87,0,3.03-.82,4.54-2.58,4.54-2.34,0-6.09-1.82-6.09-6.26,0-3.13,.35-7.37,.94-11.21v-15.95c0-5.55,.59-6.97,1.99-6.97,3.04,0,4.68,3.53,4.68,9.79v12.72c4.1-19.38,8.66-24.03,12.53-24.03,4.68,0,5.97,3.94,5.97,22.72,4.33-18.37,6.56-21.1,10.65-21.1s6.09,2.63,6.09,9.99c0,5.55-.47,13.83-.47,19.18,0,5.65,.23,6.76,1.52,6.76,2.69,0,6.67-5.86,9.37-15.14,.23-.81,.35-1.01,.47-1.01,.23,0,.47,.2,.47,1.41,0,6.26-5.15,19.79-13.23,19.79-3.16,0-5.27-1.51-5.27-6.46Z"/><path d="M244.65,83.19c1.05,.2,1.41,1.41,1.41,3.23,.12,13.73,1.52,25.95,4.68,25.95,2.11,0,5.39-5.45,7.96-14.13,.23-.71,.35-1.21,.7-1.21,.23,0,.47,.2,.47,1.01,0,2.02-.59,5.05-1.29,7.27-3.16,9.29-6.79,12.42-10.54,12.42-3.16,0-6.44-2.42-7.73-11.21-2.22,6.76-4.8,10.1-8.78,10.1-4.8,0-8.78-5.25-8.78-15.75,0-15.65,3.86-27.06,12.88-27.06,4.8,0,8.08,4.44,9.01,9.39Zm-2.81,1.82c-.82-5.05-3.4-8.78-6.79-8.78-3.86,0-5.27,6.06-5.27,22.41,0,10.9,1.99,13.53,3.98,13.53,1.64,0,3.63-3.13,5.85-10.4,0-1.01-.12-2.12-.12-3.33,0-4.64,.7-10.5,2.34-13.43Z"/><path d="M259.87,62.4c-.12-.71-.12-1.62-.12-1.92,0-2.63,2.34-4.54,5.03-4.54,1.41,0,2.11,.61,2.11,3.23,0,1.72-.35,6.06-.59,7.07-.47,2.12-1.87,3.03-3.16,3.03-1.41,0-2.34-1.01-3.28-6.86Zm7.26,47.25c.12,1.61,.35,2.52,1.05,2.52,.35,0,1.05-.4,1.76-1.21,2.69-3.03,5.15-6.66,7.03-12.12,.7-2.12,.82-2.42,1.05-2.42s.35,.4,.35,1.72c0,2.52-.7,5.35-2.22,8.48-2.93,6.06-7.84,10.2-11.47,10.2-4.57,0-4.57-3.84-4.57-33.62,0-5.45,.7-7.67,2.46-7.67,2.58,0,4.8,3.94,4.8,7.37,0,2.42-.23,5.05-.82,7.77,0,3.84,.23,13.23,.59,18.98Z"/><path d="M311.73,97.23c.23-.61,.35-.81,.47-.81,.23,0,.35,.61,.35,1.41,0,2.02-.94,5.15-1.76,7.37-3.63,9.39-7.73,12.22-11.47,12.22-2.69,0-5.03-1.82-5.03-8.38,0-2.73,.12-4.04,.59-11-2.69,13.93-5.74,18.37-9.48,18.37-4.57,0-7.84-4.44-7.84-18.07,0-10.6,4.33-21.91,10.07-21.91,3.16,0,5.62,2.22,7.61,6.97,.12-1.11,.12-4.64,.12-8.18,0,0-.12-9.39-.12-14.13,0-5.75,.47-9.39,2.22-9.39,3.16,0,5.03,5.96,5.03,11.41,0,7.87-1.52,16.96-1.52,30.49,0,16.25,.35,18.37,1.99,18.37,1.87,0,4.68-3.63,8.78-14.74Zm-27.63,1.11c0,10.1,1.29,12.72,3.39,12.72,2.22,0,5.03-11,7.73-23.12-3.04-6.46-4.8-8.58-7.02-8.58-2.11,0-4.1,5.25-4.1,18.98Z"/><path d="M328.47,74.41l.35-7.77c.12-3.84,2.46-4.95,3.16-4.95,1.52,0,1.87,2.93,1.87,12.62,0,10.8-2.69,14.44-4.45,14.44-.94,0-1.05-1.11-1.05-3.53v-7.77c-1.29-.61-3.28-1.01-5.5-1.01-3.51,0-4.68,2.12-4.68,4.34,0,3.03,1.76,5.76,8.55,11.91,9.37,8.48,11.24,11.61,11.24,15.04,0,6.36-4.68,12.12-13.58,12.12s-14.05-5.55-14.05-14.84c0-5.65,2.81-10.2,6.79-12.12-2.93-3.94-3.39-6.46-3.39-9.19,0-5.15,3.16-10.2,10.07-10.2,1.52,0,3.16,.3,4.68,.91Zm-10.3,19.79c-1.05,3.23-1.52,5.86-1.52,8.78,0,7.07,4.33,12.72,10.54,12.72,5.03,0,6.09-2.63,6.09-4.74,0-2.42-2.69-4.14-8.19-9.49-3.04-2.93-5.27-5.25-6.91-7.27Z"/></g><g><path class="o" d="M151.2,72.56c1.05,0,1.64,.71,1.64,3.23,0,1.62-.23,3.43-.7,5.65,0,0,.47,15.14,1.76,24.84,1.64-26.05,2.11-30.08,6.56-30.08,1.52,0,5.15,1.21,7.49,2.02,2.93,1.11,3.51,1.82,3.51,2.73,0,1.21-2.34,2.52-6.2,2.52-2.46,0-5.39-.81-6.44-1.62-.82,4.95-1.41,10.7-2.58,29.28-.23,3.74-1.29,4.64-2.81,4.64-4.57,0-7.14-11.41-7.61-29.28-4.45,3.23-9.72,6.46-16.51,9.99-1.41,.81-3.28,1.51-4.57,1.51h-.59c0,10.8,3.16,15.35,7.73,15.35,5.15,0,6.56-4.85,6.67-12.01,0-2.73,.12-3.53,1.29-3.53s1.87,.91,1.87,2.62c0,12.42-5.15,17.26-12.76,17.26-5.97,0-11-3.94-11-16.46,0-8.88,2.22-18.58,5.97-24.43-1.41-.61-1.64-.81-1.64-1.51,0-1.31,2.11-2.42,4.21-2.42,7.03,0,11.12,3.33,11.12,9.59,0,2.52-.7,5.35-2.11,7.87,3.75-2.12,7.49-4.34,10.42-6.87,.94-8.08,3.51-10.9,5.27-10.9Zm-27.04,23.12c1.05-.71,3.28-1.92,7.26-3.84,.59-2.22,1.05-4.44,1.05-6.56,0-4.04-1.52-5.35-5.74-7.57-1.41,3.84-2.46,11.71-2.58,17.97Z"/><path class="o" d="M207.74,109.81c0-4.95,.82-20.09,.82-24.63,0-3.63-.23-5.25-1.76-5.25-2.34,0-5.5,10.5-8.31,23.83v8.08c0,3.03-.94,4.04-2.11,4.04-2.46,0-4.92-2.32-4.92-6.36,0-1.72,.35-3.74,.7-5.75,0-14.74-.35-25.04-2.22-25.04-2.34,0-6.79,11.61-9.48,24.43,0,0,.23,3.43,.23,7.87,0,3.03-.82,4.54-2.58,4.54-2.34,0-6.09-1.82-6.09-6.26,0-3.13,.35-7.37,.94-11.21v-15.95c0-5.55,.59-6.97,1.99-6.97,3.04,0,4.68,3.53,4.68,9.79v12.72c4.1-19.38,8.66-24.03,12.53-24.03,4.68,0,5.97,3.94,5.97,22.72,4.33-18.37,6.56-21.1,10.65-21.1s6.09,2.63,6.09,9.99c0,5.55-.47,13.83-.47,19.18,0,5.65,.23,6.76,1.52,6.76,2.69,0,6.67-5.86,9.37-15.14,.23-.81,.35-1.01,.47-1.01,.23,0,.47,.2,.47,1.41,0,6.26-5.15,19.79-13.23,19.79-3.16,0-5.27-1.51-5.27-6.46Z"/><path class="o" d="M246.14,82.55c1.05,.2,1.41,1.41,1.41,3.23,.12,13.73,1.52,25.95,4.68,25.95,2.11,0,5.39-5.45,7.96-14.13,.23-.71,.35-1.21,.7-1.21,.23,0,.47,.2,.47,1.01,0,2.02-.59,5.05-1.29,7.27-3.16,9.29-6.79,12.42-10.54,12.42-3.16,0-6.44-2.42-7.73-11.21-2.22,6.76-4.8,10.1-8.78,10.1-4.8,0-8.78-5.25-8.78-15.75,0-15.65,3.86-27.06,12.88-27.06,4.8,0,8.08,4.44,9.01,9.39Zm-2.81,1.82c-.82-5.05-3.4-8.78-6.79-8.78-3.86,0-5.27,6.06-5.27,22.41,0,10.9,1.99,13.53,3.98,13.53,1.64,0,3.63-3.13,5.85-10.4,0-1.01-.12-2.12-.12-3.33,0-4.64,.7-10.5,2.34-13.43Z"/><path class="o" d="M261.35,61.76c-.12-.71-.12-1.62-.12-1.92,0-2.63,2.34-4.54,5.03-4.54,1.41,0,2.11,.61,2.11,3.23,0,1.72-.35,6.06-.59,7.07-.47,2.12-1.87,3.03-3.16,3.03-1.41,0-2.34-1.01-3.28-6.86Zm7.26,47.25c.12,1.61,.35,2.52,1.05,2.52,.35,0,1.05-.4,1.76-1.21,2.69-3.03,5.15-6.66,7.03-12.12,.7-2.12,.82-2.42,1.05-2.42s.35,.4,.35,1.72c0,2.52-.7,5.35-2.22,8.48-2.93,6.06-7.84,10.2-11.47,10.2-4.57,0-4.57-3.84-4.57-33.62,0-5.45,.7-7.67,2.46-7.67,2.58,0,4.8,3.94,4.8,7.37,0,2.42-.23,5.05-.82,7.77,0,3.84,.23,13.23,.59,18.98Z"/><path class="o" d="M313.21,96.59c.23-.61,.35-.81,.47-.81,.23,0,.35,.61,.35,1.41,0,2.02-.94,5.15-1.76,7.37-3.63,9.39-7.73,12.22-11.47,12.22-2.69,0-5.03-1.82-5.03-8.38,0-2.73,.12-4.04,.59-11-2.69,13.93-5.74,18.37-9.48,18.37-4.57,0-7.84-4.44-7.84-18.07,0-10.6,4.33-21.91,10.07-21.91,3.16,0,5.62,2.22,7.61,6.97,.12-1.11,.12-4.64,.12-8.18,0,0-.12-9.39-.12-14.13,0-5.75,.47-9.39,2.22-9.39,3.16,0,5.03,5.96,5.03,11.41,0,7.87-1.52,16.96-1.52,30.49,0,16.25,.35,18.37,1.99,18.37,1.87,0,4.68-3.63,8.78-14.74Zm-27.63,1.11c0,10.1,1.29,12.72,3.39,12.72,2.22,0,5.03-11,7.73-23.12-3.04-6.46-4.8-8.58-7.02-8.58-2.11,0-4.1,5.25-4.1,18.98Z"/><path class="o" d="M329.95,73.77l.35-7.77c.12-3.84,2.46-4.95,3.16-4.95,1.52,0,1.87,2.93,1.87,12.62,0,10.8-2.69,14.44-4.45,14.44-.94,0-1.05-1.11-1.05-3.53v-7.77c-1.29-.61-3.28-1.01-5.5-1.01-3.51,0-4.68,2.12-4.68,4.34,0,3.03,1.76,5.76,8.55,11.91,9.37,8.48,11.24,11.61,11.24,15.04,0,6.36-4.68,12.12-13.58,12.12s-14.05-5.55-14.05-14.84c0-5.65,2.81-10.2,6.79-12.12-2.93-3.94-3.39-6.46-3.39-9.19,0-5.15,3.16-10.2,10.07-10.2,1.52,0,3.16,.3,4.68,.91Zm-10.3,19.79c-1.05,3.23-1.52,5.86-1.52,8.78,0,7.07,4.33,12.72,10.54,12.72,5.03,0,6.09-2.63,6.09-4.74,0-2.42-2.69-4.14-8.19-9.49-3.04-2.93-5.27-5.25-6.91-7.27Z"/></g></g><g><path d="M173.21,161.62l-1.72-4.05h-.23c-1.5,1.72-3.04,2.92-4.62,3.59s-3.65,1-6.19,1c-3.13,0-5.59-.82-7.39-2.45s-2.7-3.97-2.7-6.99,1.21-5.5,3.63-7,6.07-2.33,10.94-2.49l5.65-.16v-1.31c0-3.02-1.69-4.53-5.07-4.53-2.6,0-5.66,.72-9.18,2.16l-2.94-5.5c3.75-1.8,7.91-2.69,12.47-2.69s7.72,.87,10.05,2.61,3.5,4.39,3.5,7.95v19.87h-6.21Zm-2.62-13.82l-3.44,.11c-2.58,.07-4.51,.5-5.77,1.28s-1.89,1.97-1.89,3.57c0,2.29,1.44,3.44,4.31,3.44,2.06,0,3.71-.54,4.94-1.63s1.85-2.52,1.85-4.32v-2.45Z"/><path d="M197.52,162.15c-3.83,0-6.83-1.36-9.02-4.08-2.19-2.72-3.28-6.49-3.28-11.31s1.11-8.7,3.34-11.43,5.29-4.09,9.19-4.09c4.1,0,7.23,1.46,9.38,4.37h.29c-.45-2.22-.67-4.21-.67-5.95v-9.55h8.92v41.51h-6.82l-1.72-3.87h-.38c-2.02,2.93-5.1,4.4-9.24,4.4Zm3.12-6.48c2.27,0,3.94-.6,5-1.81s1.64-3.26,1.73-6.16v-.88c0-3.2-.54-5.5-1.62-6.88-1.08-1.39-2.83-2.08-5.26-2.08-1.98,0-3.52,.77-4.62,2.31s-1.65,3.77-1.65,6.71,.55,5.14,1.66,6.6,2.69,2.2,4.75,2.2Z"/><path d="M241.05,162.15c-3.83,0-6.83-1.27-9-3.81h-.47c.31,2.49,.47,3.93,.47,4.32v12.08h-8.89v-42.95h7.23l1.25,3.87h.41c2.08-2.95,5.16-4.43,9.24-4.43,3.85,0,6.86,1.36,9.03,4.08s3.26,6.5,3.26,11.34c0,3.18-.51,5.95-1.53,8.3-1.02,2.35-2.47,4.13-4.36,5.36s-4.1,1.84-6.64,1.84Zm-2.62-24.41c-2.2,0-3.8,.62-4.81,1.85s-1.53,3.28-1.57,6.12v.88c0,3.2,.52,5.5,1.56,6.88,1.04,1.39,2.69,2.08,4.94,2.08,3.98,0,5.97-3.01,5.97-9.02,0-2.93-.49-5.14-1.47-6.6s-2.52-2.2-4.62-2.2Z"/><path d="M289.2,146.65c0,4.85-1.4,8.65-4.2,11.39s-6.69,4.11-11.69,4.11c-3.13,0-5.89-.63-8.28-1.88-2.39-1.25-4.23-3.05-5.51-5.4s-1.92-5.09-1.92-8.22c0-4.87,1.39-8.66,4.17-11.36s6.68-4.05,11.71-4.05c3.13,0,5.89,.62,8.28,1.87s4.23,3.03,5.51,5.36c1.28,2.33,1.92,5.06,1.92,8.19Zm-22.53,0c0,2.95,.53,5.18,1.59,6.7s2.78,2.27,5.17,2.27,4.08-.75,5.11-2.25c1.04-1.5,1.56-3.74,1.56-6.71s-.52-5.17-1.57-6.64-2.77-2.21-5.16-2.21-4.08,.73-5.13,2.2-1.57,3.69-1.57,6.66Z"/><path d="M303.18,161.62h-8.89v-41.51h8.89v41.51Z"/><path d="M325.92,162.15c-5.25,0-9.34-1.32-12.3-3.97-2.95-2.65-4.43-6.4-4.43-11.26s1.37-8.86,4.09-11.59c2.73-2.73,6.5-4.09,11.32-4.09s8.19,1.2,10.75,3.6c2.56,2.4,3.85,5.72,3.85,9.95v3.95h-21.01c.1,2.31,.85,4.12,2.24,5.42s3.36,1.95,5.89,1.95c1.96,0,3.82-.19,5.57-.56s3.58-.97,5.48-1.79v6.3c-1.55,.71-3.21,1.24-4.98,1.59-1.77,.35-3.92,.52-6.47,.52Zm-1.25-25.13c-1.88,0-3.36,.55-4.43,1.64s-1.68,2.64-1.84,4.65h12.47c-.04-2.01-.61-3.56-1.72-4.65s-2.6-1.64-4.49-1.64Z"/><path d="M369.17,152.76c0,3.06-1.16,5.39-3.48,6.99-2.32,1.6-5.79,2.4-10.42,2.4-2.37,0-4.39-.15-6.06-.44s-3.23-.72-4.69-1.29v-6.72c1.65,.71,3.51,1.31,5.58,1.79,2.07,.48,3.89,.72,5.46,.72,3.23,0,4.84-.85,4.84-2.56,0-.64-.21-1.16-.64-1.56s-1.17-.85-2.21-1.36-2.45-1.1-4.2-1.77c-2.51-.96-4.35-1.85-5.52-2.67-1.18-.82-2.03-1.76-2.56-2.81-.54-1.06-.8-2.36-.8-3.91,0-2.65,1.12-4.7,3.37-6.15,2.24-1.45,5.42-2.17,9.54-2.17s7.74,.78,11.45,2.35l-2.68,5.87c-1.63-.64-3.16-1.16-4.58-1.57s-2.86-.61-4.34-.61c-2.62,0-3.93,.65-3.93,1.95,0,.73,.42,1.36,1.27,1.89,.85,.53,2.7,1.32,5.55,2.37,2.54,.94,4.41,1.82,5.6,2.64,1.19,.82,2.06,1.76,2.62,2.83s.85,2.34,.85,3.81Z"/></g><path class="l" d="M151.59,181.88c1.64,0,3.23-.14,4.77-.43,1.53-.29,2.75-.58,3.64-.89v8.37c-1.01,.57-2.5,1.04-4.46,1.42-1.96,.37-3.73,.56-5.3,.56-11.89,0-17.83-7.36-17.83-22.08v-44.97h-10.8v-5.27l10.8-4.55,3.92-17.42h5.38v18.74h17.83v8.5h-17.83v44.51c0,4.35,.88,7.69,2.63,10.02,1.76,2.33,4.17,3.49,7.23,3.49Z"/></g></svg>