<?xml version="1.0" encoding="UTF-8"?><svg xmlns="http://www.w3.org/2000/svg" viewBox="0 0 184.58 102.68"><defs><style>.g{stroke-width:2.25px;}.g,.h,.i,.j{stroke-miterlimit:10;}.g,.i,.k,.l,.m,.n{fill-rule:evenodd;}.g,.i,.m,.j{fill:#fff;}.g,.i,.j{stroke:#fff;}.o,.k,.p{fill:#010d26;}.q{fill:#6057b9;}.h{fill:none;opacity:.55;stroke:#45b8c4;stroke-width:2.6px;}.i,.j{stroke-width:1.25px;}.k,.p{opacity:.7;}.r{opacity:.75;}.l{fill:#45b8c4;}.n{fill:#0095d2;}</style></defs><g id="a"><path class="h" d="M69.11,95.89c-5.71,3.1-12.25,4.86-19.21,4.86-22.26,0-40.3-18.04-40.3-40.3,0-11.17,4.54-21.27,11.88-28.57"/><path class="h" d="M28.67,26.19c6.16-3.83,13.44-6.04,21.23-6.04,13.91,0,26.18,7.05,33.42,17.77,.05,.07,.1,.14,.14,.22"/><path class="m" d="M79.84,36.94c2.64-2.59,7.38-1.89,9.25,1.24-2.3-2.26-5.15-.69-7.38,1.42-1.82,1.72-3.93-.65-1.87-2.66h0Z"/></g><g id="b"><path class="j" d="M17.77,81.4c1.57-4.99,2.78-13.76,4.35-30.3,.5-5.56,.93-11.19,1.07-14.97-.78-3.28-1.07-5.77-1.07-7.77,0-4.85,1.85-6.2,3.21-6.2,.93,0,1.57,.64,1.57,3.28,0,1.07-.14,3.42-.14,4.99,2.99,11.69,8.77,31.01,11.91,40.57,3.07-10.77,6.35-22.1,10.62-33.29,1.14-4.78,2-6.63,3.14-6.63,.43,0,.93,.29,.93,3.14,0,.86-.14,4.28-.14,6.13,0,9.34,.07,18.46,.43,27.88,.29,7.2,1.5,8.7,2.71,8.7,1.71,0,4.49-5.2,6.7-12.98,.14-.5,.21-.86,.36-.86s.21,.36,.21,.71c0,1.43-.71,4.78-1.21,6.35-2.42,7.27-4.92,10.55-7.98,10.55-4.56,0-5.56-8.98-5.56-24.45,0-3.49,.07-7.91,.14-11.55-2.92,8.77-6.35,20.03-8.34,27.52-.43,1.5-.78,3.07-1.07,4.28-.57,2.5-.93,3.71-1.85,3.71s-1.5-.86-2.21-2.99c-2.5-7.7-7.77-25.45-10.27-34.93-1.07,34.29-2.57,45.7-12.26,45.7-2.99,0-4.78-1.64-4.78-2.99,0-.57,.28-.93,.78-.93,1,0,2.57,1.43,4.92,1.43,1.43,0,2.78-.71,3.85-4.06Z"/><path class="j" d="M17.29,79.05c1.57-4.99,2.78-13.76,4.35-30.3,.5-5.56,.93-11.19,1.07-14.97-.78-3.28-1.07-5.77-1.07-7.77,0-4.85,1.85-6.2,3.21-6.2,.93,0,1.57,.64,1.57,3.28,0,1.07-.14,3.42-.14,4.99,2.99,11.69,8.77,31.01,11.91,40.57,3.07-10.77,6.35-22.1,10.62-33.29,1.14-4.78,2-6.63,3.14-6.63,.43,0,.93,.29,.93,3.14,0,.86-.14,4.28-.14,6.13,0,9.34,.07,18.46,.43,27.88,.29,7.2,1.5,8.7,2.71,8.7,1.71,0,4.49-5.2,6.7-12.98,.14-.5,.21-.86,.36-.86s.21,.36,.21,.71c0,1.43-.71,4.78-1.21,6.35-2.42,7.27-4.92,10.55-7.98,10.55-4.56,0-5.56-8.98-5.56-24.45,0-3.49,.07-7.91,.14-11.55-2.92,8.77-6.35,20.03-8.34,27.52-.43,1.5-.78,3.07-1.07,4.28-.57,2.5-.93,3.71-1.85,3.71s-1.5-.86-2.21-2.99c-2.5-7.7-7.77-25.45-10.27-34.93-1.07,34.29-2.57,45.7-12.26,45.7-2.99,0-4.78-1.64-4.78-2.99,0-.57,.28-.93,.78-.93,1,0,2.57,1.43,4.92,1.43,1.43,0,2.78-.71,3.85-4.06Z"/></g><g id="c"><path class="g" d="M8.5,14.87c11.99,.16,16.99,15.29,18.77,24.05-1.14-5.61-10.46-13.39-20.39-13.7-8.13-.26-7.69-10.48,1.62-10.35h0Z"/><path class="g" d="M18.75,9.64c-4.05,10.67,8.36,24.21,13.15,34.32-1.9-4.01-6.25-24.24-3.42-32.13,2.62-7.29-6.59-10.48-9.74-2.19h0Z"/></g><g id="d"><path class="m" d="M19.73,4.91c-4.83,11.08,7.62,26.01,12.17,36.94-1.81-4.34-5.38-25.93-1.99-34.13,3.13-7.57-6.43-11.41-10.18-2.81h0Z"/><path class="n" d="M9.54,13.49c12.71,.47,17.63,16.92,19.3,26.42-1.07-6.08-10.76-14.7-21.28-15.29-8.61-.48-7.89-11.5,1.98-11.13h0Z"/><path class="l" d="M18.12,8.21c-4.85,11.13,8.3,25.92,13.19,36.79-1.94-4.31-5.97-25.87-2.57-34.11,3.14-7.61-6.85-11.34-10.62-2.69h0Z"/></g><g id="e"><path class="i" d="M85.24,98.19c-9.17,4-20.48-2.34-22.21-12.06,3.65,7.93,12.37,6.71,20.02,3.54,6.26-2.59,9.3,5.42,2.18,8.52h0Z"/><g class="r"><path class="o" d="M17.31,80.73c1.65-5.25,2.92-14.47,4.57-31.87,.52-5.85,.98-11.77,1.12-15.75-.82-3.45-1.12-6.07-1.12-8.17,0-5.1,1.95-6.52,3.38-6.52,.97,0,1.65,.67,1.65,3.45,0,1.12-.15,3.6-.15,5.25,3.15,12.3,9.22,32.62,12.52,42.67,3.23-11.32,6.67-23.25,11.17-35.02,1.2-5.02,2.1-6.97,3.3-6.97,.45,0,.97,.3,.97,3.3,0,.9-.15,4.5-.15,6.45,0,9.82,.08,19.42,.45,29.32,.3,7.57,1.57,9.15,2.85,9.15,1.8,0,5.04-6.26,7.37-14.44,.15-.52,.22-.9,.37-.9s.22,.37,.22,.75c0,1.5-1.07,5.81-1.59,7.46-2.55,7.65-5.18,11.1-8.4,11.1-4.8,0-5.85-9.45-5.85-25.72,0-3.67,.08-8.32,.15-12.15-3.07,9.22-6.67,21.07-8.77,28.95-.45,1.57-.83,3.22-1.12,4.5-.6,2.63-.98,3.9-1.95,3.9s-1.58-.9-2.32-3.15c-2.63-8.1-8.18-26.77-10.8-36.75-1.12,36.07-2.7,48.07-12.9,48.07-3.15,0-5.02-1.72-5.02-3.15,0-.6,.3-.98,.82-.98,1.05,0,2.7,1.5,5.18,1.5,1.5,0,2.92-.75,4.05-4.27Z"/></g><path class="p" d="M41.41,86.96c0-.85,.21-1.59,.62-2.22s1.17-1.26,2.25-1.88c-.62-.72-1.04-1.33-1.26-1.83s-.34-1.01-.34-1.54c0-.99,.35-1.77,1.06-2.34s1.65-.86,2.84-.86,2.05,.28,2.71,.83,.98,1.3,.98,2.24c0,.74-.22,1.41-.66,2.02s-1.17,1.21-2.2,1.81l3.37,3.25c.53-.69,.96-1.71,1.31-3.06h2.36c-.45,1.84-1.18,3.35-2.18,4.51l2.93,2.83h-2.95l-1.45-1.41c-.66,.53-1.37,.93-2.12,1.2s-1.58,.4-2.49,.4c-1.49,0-2.66-.35-3.51-1.06s-1.28-1.67-1.28-2.9Zm4.91,2c1.19,0,2.2-.35,3.05-1.04l-3.73-3.67c-.69,.44-1.16,.86-1.42,1.24s-.39,.83-.39,1.32c0,.64,.23,1.15,.68,1.55s1.06,.6,1.82,.6Zm-1.45-9.4c0,.41,.11,.8,.33,1.16s.52,.75,.91,1.16c.73-.42,1.25-.8,1.54-1.16s.44-.76,.44-1.21c0-.42-.14-.76-.42-1.01s-.66-.38-1.12-.38c-.51,0-.92,.13-1.22,.39s-.45,.61-.45,1.06Z"/><path class="q" d="M18.08,80.27c1.65-5.25,2.92-14.47,4.57-31.87,.52-5.85,.98-11.77,1.12-15.75-.82-3.45-1.12-6.07-1.12-8.17,0-5.1,1.95-6.52,3.38-6.52,.97,0,1.65,.67,1.65,3.45,0,1.12-.15,3.6-.15,5.25,3.15,12.3,9.22,32.62,12.52,42.67,3.23-11.32,6.67-23.25,11.17-35.02,1.2-5.02,2.1-6.97,3.3-6.97,.45,0,.97,.3,.97,3.3,0,.9-.15,4.5-.15,6.45,0,9.82,.08,19.42,.45,29.32,.3,7.57,1.57,9.15,2.85,9.15,1.8,0,4.72-5.47,7.05-13.65,.15-.52,.22-.9,.37-.9s.22,.37,.22,.75c0,1.5-.75,5.02-1.27,6.67-2.55,7.65-5.18,11.1-8.4,11.1-4.8,0-5.85-9.45-5.85-25.72,0-3.67,.08-8.32,.15-12.15-3.07,9.22-6.67,21.07-8.77,28.95-.45,1.57-.83,3.22-1.12,4.5-.6,2.63-.98,3.9-1.95,3.9s-1.58-.9-2.32-3.15c-2.63-8.1-8.18-26.77-10.8-36.75-1.12,36.07-2.7,48.07-12.9,48.07-3.15,0-5.02-1.72-5.02-3.15,0-.6,.3-.98,.82-.98,1.05,0,2.7,1.5,5.18,1.5,1.5,0,2.92-.75,4.05-4.27Z"/><path class="k" d="M94.84,98.82c-6.66,6.02-18.91,4.77-23.9-2.17,6.06,4.94,13.31,1.2,18.93-3.7,4.6-4.01,10.14,1.19,4.97,5.87h0Zm-.13-1.17c-2.37,2.64-7.13,4.72-11.59,4.07,5.24-.5,8.28-2.85,10.39-5.65,1.44-1.91,3.41-.88,1.2,1.58h0Z"/><path class="k" d="M86.84,87.56c-4.87,3.29-11.96,1.28-13.9-3.76,2.86,3.83,7.74,2.09,11.82-.57,3.34-2.18,5.86,1.77,2.08,4.33h0Zm.1-.78c-1.81,1.5-4.95,2.4-7.51,1.53,3.19,.18,5.35-1.06,7.03-2.69,1.14-1.11,2.16-.24,.47,1.15h0Z"/></g><g id="f"><g><g class="r"><path d="M74.86,36.6c.53,0,.82,.35,.82,1.62,0,.81-.12,1.72-.35,2.83,0,0,.23,7.57,.88,12.42,.82-13.02,1.05-15.04,3.28-15.04,.76,0,2.58,.61,3.75,1.01,1.46,.56,1.76,.91,1.76,1.36,0,.61-1.17,1.26-3.1,1.26-1.23,0-2.69-.4-3.22-.81-.41,2.47-.7,5.35-1.29,14.64-.12,1.87-.64,2.32-1.4,2.32-2.28,0-3.57-5.7-3.81-14.64-2.22,1.62-4.86,3.23-8.25,5-.7,.4-1.64,.76-2.28,.76h-.29c0,5.4,1.58,7.67,3.86,7.67,2.58,0,3.28-2.42,3.34-6.01,0-1.36,.06-1.77,.64-1.77s.94,.45,.94,1.31c0,6.21-2.58,8.63-6.38,8.63-2.99,0-5.5-1.97-5.5-8.23,0-4.44,1.11-9.29,2.98-12.22-.7-.3-.82-.4-.82-.76,0-.66,1.05-1.21,2.11-1.21,3.51,0,5.56,1.67,5.56,4.8,0,1.26-.35,2.68-1.05,3.94,1.87-1.06,3.75-2.17,5.21-3.43,.47-4.04,1.76-5.45,2.63-5.45Zm-13.52,11.56c.53-.35,1.64-.96,3.63-1.92,.29-1.11,.53-2.22,.53-3.28,0-2.02-.76-2.68-2.87-3.79-.7,1.92-1.23,5.86-1.29,8.98Z"/><path d="M103.13,55.23c0-2.47,.41-10.05,.41-12.32,0-1.82-.12-2.62-.88-2.62-1.17,0-2.75,5.25-4.16,11.91v4.04c0,1.51-.47,2.02-1.05,2.02-1.23,0-2.46-1.16-2.46-3.18,0-.86,.18-1.87,.35-2.88,0-7.37-.18-12.52-1.11-12.52-1.17,0-3.4,5.81-4.74,12.22,0,0,.12,1.72,.12,3.94,0,1.51-.41,2.27-1.29,2.27-1.17,0-3.04-.91-3.04-3.13,0-1.57,.18-3.69,.47-5.6v-7.98c0-2.78,.29-3.48,1-3.48,1.52,0,2.34,1.77,2.34,4.9v6.36c2.05-9.69,4.33-12.01,6.26-12.01,2.34,0,2.98,1.97,2.98,11.36,2.17-9.19,3.28-10.55,5.33-10.55s3.04,1.31,3.04,5c0,2.78-.23,6.92-.23,9.59,0,2.83,.12,3.38,.76,3.38,1.35,0,3.34-2.93,4.68-7.57,.12-.4,.18-.5,.23-.5,.12,0,.23,.1,.23,.71,0,3.13-2.58,9.89-6.61,9.89-1.58,0-2.63-.76-2.63-3.23Z"/><path d="M122.33,41.6c.53,.1,.7,.71,.7,1.62,.06,6.86,.76,12.97,2.34,12.97,1.05,0,2.69-2.73,3.98-7.07,.12-.35,.18-.61,.35-.61,.12,0,.23,.1,.23,.5,0,1.01-.29,2.52-.64,3.63-1.58,4.64-3.39,6.21-5.27,6.21-1.58,0-3.22-1.21-3.86-5.6-1.11,3.38-2.4,5.05-4.39,5.05-2.4,0-4.39-2.62-4.39-7.87,0-7.82,1.93-13.53,6.44-13.53,2.4,0,4.04,2.22,4.51,4.69Zm-1.41,.91c-.41-2.52-1.7-4.39-3.39-4.39-1.93,0-2.63,3.03-2.63,11.21,0,5.45,1,6.76,1.99,6.76,.82,0,1.81-1.57,2.93-5.2,0-.5-.06-1.06-.06-1.67,0-2.32,.35-5.25,1.17-6.71Z"/><path d="M129.93,31.2c-.06-.35-.06-.81-.06-.96,0-1.31,1.17-2.27,2.52-2.27,.7,0,1.05,.3,1.05,1.62,0,.86-.18,3.03-.29,3.53-.23,1.06-.94,1.51-1.58,1.51-.7,0-1.17-.5-1.64-3.43Zm3.63,23.62c.06,.81,.18,1.26,.53,1.26,.18,0,.53-.2,.88-.61,1.35-1.51,2.58-3.33,3.51-6.06,.35-1.06,.41-1.21,.53-1.21s.18,.2,.18,.86c0,1.26-.35,2.68-1.11,4.24-1.46,3.03-3.92,5.1-5.74,5.1-2.28,0-2.28-1.92-2.28-16.81,0-2.73,.35-3.84,1.23-3.84,1.29,0,2.4,1.97,2.4,3.69,0,1.21-.12,2.52-.41,3.89,0,1.92,.12,6.61,.29,9.49Z"/><path d="M155.86,48.61c.12-.3,.18-.4,.23-.4,.12,0,.18,.3,.18,.71,0,1.01-.47,2.57-.88,3.69-1.81,4.69-3.86,6.11-5.74,6.11-1.35,0-2.52-.91-2.52-4.19,0-1.36,.06-2.02,.29-5.5-1.35,6.97-2.87,9.19-4.74,9.19-2.28,0-3.92-2.22-3.92-9.04,0-5.3,2.17-10.95,5.03-10.95,1.58,0,2.81,1.11,3.8,3.48,.06-.56,.06-2.32,.06-4.09,0,0-.06-4.69-.06-7.07,0-2.88,.23-4.69,1.11-4.69,1.58,0,2.52,2.98,2.52,5.7,0,3.94-.76,8.48-.76,15.24,0,8.13,.18,9.19,1,9.19,.94,0,2.34-1.82,4.39-7.37Zm-13.81,.56c0,5.05,.64,6.36,1.7,6.36,1.11,0,2.52-5.5,3.86-11.56-1.52-3.23-2.4-4.29-3.51-4.29-1.05,0-2.05,2.62-2.05,9.49Z"/><path d="M164.23,37.21l.18-3.89c.06-1.92,1.23-2.47,1.58-2.47,.76,0,.94,1.46,.94,6.31,0,5.4-1.35,7.22-2.22,7.22-.47,0-.53-.56-.53-1.77v-3.89c-.64-.3-1.64-.5-2.75-.5-1.76,0-2.34,1.06-2.34,2.17,0,1.51,.88,2.88,4.27,5.96,4.68,4.24,5.62,5.81,5.62,7.52,0,3.18-2.34,6.06-6.79,6.06s-7.02-2.78-7.02-7.42c0-2.83,1.41-5.1,3.39-6.06-1.46-1.97-1.7-3.23-1.7-4.59,0-2.57,1.58-5.1,5.03-5.1,.76,0,1.58,.15,2.34,.45Zm-5.15,9.89c-.53,1.62-.76,2.93-.76,4.39,0,3.53,2.17,6.36,5.27,6.36,2.52,0,3.04-1.31,3.04-2.37,0-1.21-1.35-2.07-4.1-4.74-1.52-1.46-2.63-2.62-3.45-3.63Z"/></g><g><path class="q" d="M75.6,36.28c.53,0,.82,.35,.82,1.62,0,.81-.12,1.72-.35,2.83,0,0,.23,7.57,.88,12.42,.82-13.02,1.05-15.04,3.28-15.04,.76,0,2.58,.61,3.75,1.01,1.46,.56,1.76,.91,1.76,1.36,0,.61-1.17,1.26-3.1,1.26-1.23,0-2.69-.4-3.22-.81-.41,2.47-.7,5.35-1.29,14.64-.12,1.87-.64,2.32-1.4,2.32-2.28,0-3.57-5.7-3.81-14.64-2.22,1.62-4.86,3.23-8.25,5-.7,.4-1.64,.76-2.28,.76h-.29c0,5.4,1.58,7.67,3.86,7.67,2.58,0,3.28-2.42,3.34-6.01,0-1.36,.06-1.77,.64-1.77s.94,.45,.94,1.31c0,6.21-2.58,8.63-6.38,8.63-2.99,0-5.5-1.97-5.5-8.23,0-4.44,1.11-9.29,2.98-12.22-.7-.3-.82-.4-.82-.76,0-.66,1.05-1.21,2.11-1.21,3.51,0,5.56,1.67,5.56,4.8,0,1.26-.35,2.68-1.05,3.94,1.87-1.06,3.75-2.17,5.21-3.43,.47-4.04,1.76-5.45,2.63-5.45Zm-13.52,11.56c.53-.35,1.64-.96,3.63-1.92,.29-1.11,.53-2.22,.53-3.28,0-2.02-.76-2.68-2.87-3.79-.7,1.92-1.23,5.86-1.29,8.98Z"/><path class="q" d="M103.87,54.91c0-2.47,.41-10.05,.41-12.32,0-1.82-.12-2.62-.88-2.62-1.17,0-2.75,5.25-4.16,11.91v4.04c0,1.51-.47,2.02-1.05,2.02-1.23,0-2.46-1.16-2.46-3.18,0-.86,.18-1.87,.35-2.88,0-7.37-.18-12.52-1.11-12.52-1.17,0-3.4,5.81-4.74,12.22,0,0,.12,1.72,.12,3.94,0,1.51-.41,2.27-1.29,2.27-1.17,0-3.04-.91-3.04-3.13,0-1.57,.18-3.69,.47-5.6v-7.98c0-2.78,.29-3.48,1-3.48,1.52,0,2.34,1.77,2.34,4.9v6.36c2.05-9.69,4.33-12.01,6.26-12.01,2.34,0,2.98,1.97,2.98,11.36,2.17-9.19,3.28-10.55,5.33-10.55s3.04,1.31,3.04,5c0,2.78-.23,6.92-.23,9.59,0,2.83,.12,3.38,.76,3.38,1.35,0,3.34-2.93,4.68-7.57,.12-.4,.18-.5,.23-.5,.12,0,.23,.1,.23,.71,0,3.13-2.58,9.89-6.61,9.89-1.58,0-2.63-.76-2.63-3.23Z"/><path class="q" d="M123.07,41.28c.53,.1,.7,.71,.7,1.62,.06,6.86,.76,12.97,2.34,12.97,1.05,0,2.69-2.73,3.98-7.07,.12-.35,.18-.61,.35-.61,.12,0,.23,.1,.23,.5,0,1.01-.29,2.52-.64,3.63-1.58,4.64-3.39,6.21-5.27,6.21-1.58,0-3.22-1.21-3.86-5.6-1.11,3.38-2.4,5.05-4.39,5.05-2.4,0-4.39-2.62-4.39-7.87,0-7.82,1.93-13.53,6.44-13.53,2.4,0,4.04,2.22,4.51,4.69Zm-1.41,.91c-.41-2.52-1.7-4.39-3.39-4.39-1.93,0-2.63,3.03-2.63,11.21,0,5.45,1,6.76,1.99,6.76,.82,0,1.81-1.57,2.93-5.2,0-.5-.06-1.06-.06-1.67,0-2.32,.35-5.25,1.17-6.71Z"/><path class="q" d="M130.68,30.88c-.06-.35-.06-.81-.06-.96,0-1.31,1.17-2.27,2.52-2.27,.7,0,1.05,.3,1.05,1.62,0,.86-.18,3.03-.29,3.53-.23,1.06-.94,1.51-1.58,1.51-.7,0-1.17-.5-1.64-3.43Zm3.63,23.62c.06,.81,.18,1.26,.53,1.26,.18,0,.53-.2,.88-.61,1.35-1.51,2.58-3.33,3.51-6.06,.35-1.06,.41-1.21,.53-1.21s.18,.2,.18,.86c0,1.26-.35,2.68-1.11,4.24-1.46,3.03-3.92,5.1-5.74,5.1-2.28,0-2.28-1.92-2.28-16.81,0-2.73,.35-3.84,1.23-3.84,1.29,0,2.4,1.97,2.4,3.69,0,1.21-.12,2.52-.41,3.89,0,1.92,.12,6.61,.29,9.49Z"/><path class="q" d="M156.61,48.29c.12-.3,.18-.4,.23-.4,.12,0,.18,.3,.18,.71,0,1.01-.47,2.57-.88,3.69-1.81,4.69-3.86,6.11-5.74,6.11-1.35,0-2.52-.91-2.52-4.19,0-1.36,.06-2.02,.29-5.5-1.35,6.97-2.87,9.19-4.74,9.19-2.28,0-3.92-2.22-3.92-9.04,0-5.3,2.17-10.95,5.03-10.95,1.58,0,2.81,1.11,3.8,3.48,.06-.56,.06-2.32,.06-4.09,0,0-.06-4.69-.06-7.07,0-2.88,.23-4.69,1.11-4.69,1.58,0,2.52,2.98,2.52,5.7,0,3.94-.76,8.48-.76,15.24,0,8.13,.18,9.19,1,9.19,.94,0,2.34-1.82,4.39-7.37Zm-13.81,.56c0,5.05,.64,6.36,1.7,6.36,1.11,0,2.52-5.5,3.86-11.56-1.52-3.23-2.4-4.29-3.51-4.29-1.05,0-2.05,2.62-2.05,9.49Z"/><path class="q" d="M164.98,36.88l.18-3.89c.06-1.92,1.23-2.47,1.58-2.47,.76,0,.94,1.46,.94,6.31,0,5.4-1.35,7.22-2.22,7.22-.47,0-.53-.56-.53-1.77v-3.89c-.64-.3-1.64-.5-2.75-.5-1.76,0-2.34,1.06-2.34,2.17,0,1.51,.88,2.88,4.27,5.96,4.68,4.24,5.62,5.81,5.62,7.52,0,3.18-2.34,6.06-6.79,6.06s-7.02-2.78-7.02-7.42c0-2.83,1.41-5.1,3.39-6.06-1.46-1.97-1.7-3.23-1.7-4.59,0-2.57,1.58-5.1,5.03-5.1,.76,0,1.58,.15,2.34,.45Zm-5.15,9.89c-.53,1.62-.76,2.93-.76,4.39,0,3.53,2.17,6.36,5.27,6.36,2.52,0,3.04-1.31,3.04-2.37,0-1.21-1.35-2.07-4.1-4.74-1.52-1.46-2.63-2.62-3.45-3.63Z"/></g></g><g><path d="M86.6,80.81l-.86-2.03h-.12c-.75,.86-1.52,1.46-2.31,1.79s-1.82,.5-3.1,.5c-1.56,0-2.8-.41-3.69-1.23s-1.35-1.98-1.35-3.49,.6-2.75,1.81-3.5,3.03-1.17,5.47-1.25l2.83-.08v-.65c0-1.51-.85-2.27-2.54-2.27-1.3,0-2.83,.36-4.59,1.08l-1.47-2.75c1.87-.9,3.95-1.35,6.24-1.35s3.86,.44,5.03,1.31,1.75,2.2,1.75,3.97v9.94h-3.1Zm-1.31-6.91l-1.72,.05c-1.29,.04-2.25,.25-2.88,.64s-.95,.99-.95,1.79c0,1.15,.72,1.72,2.16,1.72,1.03,0,1.85-.27,2.47-.81s.93-1.26,.93-2.16v-1.23Z"/><path d="M98.76,81.08c-1.91,0-3.42-.68-4.51-2.04s-1.64-3.25-1.64-5.66,.56-4.35,1.67-5.72,2.64-2.05,4.6-2.05c2.05,0,3.61,.73,4.69,2.19h.15c-.22-1.11-.34-2.1-.34-2.97v-4.77h4.46v20.75h-3.41l-.86-1.93h-.19c-1.01,1.47-2.55,2.2-4.62,2.2Zm1.56-3.24c1.14,0,1.97-.3,2.5-.91s.82-1.63,.87-3.08v-.44c0-1.6-.27-2.75-.81-3.44s-1.42-1.04-2.63-1.04c-.99,0-1.76,.38-2.31,1.15s-.82,1.89-.82,3.35,.28,2.57,.83,3.3,1.35,1.1,2.37,1.1Z"/><path d="M120.53,81.08c-1.91,0-3.41-.64-4.5-1.91h-.23c.16,1.25,.23,1.97,.23,2.16v6.04h-4.44v-21.47h3.61l.63,1.93h.2c1.04-1.48,2.58-2.21,4.62-2.21,1.92,0,3.43,.68,4.52,2.04s1.63,3.25,1.63,5.67c0,1.59-.25,2.97-.76,4.15s-1.24,2.07-2.18,2.68-2.05,.92-3.32,.92Zm-1.31-12.2c-1.1,0-1.9,.31-2.4,.93s-.77,1.64-.79,3.06v.44c0,1.6,.26,2.75,.78,3.44s1.34,1.04,2.47,1.04c1.99,0,2.99-1.5,2.99-4.51,0-1.47-.25-2.57-.74-3.3s-1.26-1.1-2.31-1.1Z"/><path d="M144.6,73.33c0,2.43-.7,4.33-2.1,5.7s-3.35,2.05-5.84,2.05c-1.56,0-2.94-.31-4.14-.94s-2.11-1.53-2.75-2.7-.96-2.54-.96-4.11c0-2.44,.69-4.33,2.08-5.68s3.34-2.03,5.86-2.03c1.56,0,2.94,.31,4.14,.93s2.11,1.52,2.75,2.68,.96,2.53,.96,4.09Zm-11.26,0c0,1.48,.26,2.59,.79,3.35s1.39,1.13,2.59,1.13,2.04-.38,2.56-1.13,.78-1.87,.78-3.35-.26-2.58-.79-3.32-1.38-1.11-2.58-1.11-2.04,.37-2.56,1.1-.79,1.84-.79,3.33Z"/><path d="M151.59,80.81h-4.44v-20.75h4.44v20.75Z"/><path d="M162.96,81.08c-2.62,0-4.67-.66-6.15-1.99s-2.21-3.2-2.21-5.63,.68-4.43,2.05-5.8,3.25-2.05,5.66-2.05,4.09,.6,5.38,1.8,1.92,2.86,1.92,4.97v1.97h-10.51c.05,1.16,.42,2.06,1.12,2.71s1.68,.97,2.94,.97c.98,0,1.91-.09,2.78-.28s1.79-.48,2.74-.89v3.15c-.78,.36-1.61,.62-2.49,.79-.88,.17-1.96,.26-3.23,.26Zm-.63-12.56c-.94,0-1.68,.27-2.21,.82s-.84,1.32-.92,2.33h6.24c-.02-1-.31-1.78-.86-2.33s-1.3-.82-2.24-.82Z"/><path d="M184.58,76.38c0,1.53-.58,2.69-1.74,3.49-1.16,.8-2.9,1.2-5.21,1.2-1.18,0-2.2-.07-3.03-.22s-1.62-.36-2.35-.65v-3.36c.83,.36,1.76,.65,2.79,.89,1.03,.24,1.94,.36,2.73,.36,1.61,0,2.42-.43,2.42-1.28,0-.32-.11-.58-.32-.78s-.58-.43-1.11-.68-1.22-.55-2.1-.89c-1.25-.48-2.17-.92-2.76-1.33-.59-.41-1.02-.88-1.28-1.41-.27-.53-.4-1.18-.4-1.95,0-1.33,.56-2.35,1.68-3.07,1.12-.72,2.71-1.09,4.77-1.09s3.87,.39,5.73,1.17l-1.34,2.93c-.82-.32-1.58-.58-2.29-.79s-1.43-.31-2.17-.31c-1.31,0-1.97,.32-1.97,.97,0,.36,.21,.68,.63,.95,.42,.27,1.35,.66,2.78,1.19,1.27,.47,2.2,.91,2.8,1.32s1.03,.88,1.31,1.41,.42,1.17,.42,1.91Z"/></g><path class="o" d="M75.8,90.94c.82,0,1.62-.07,2.38-.21,.77-.14,1.37-.29,1.82-.45v4.19c-.5,.29-1.25,.52-2.23,.71-.98,.19-1.86,.28-2.65,.28-5.94,0-8.91-3.68-8.91-11.04v-22.49h-5.4v-2.64l5.4-2.27,1.96-8.71h2.69v9.37h8.91v4.25h-8.91v22.26c0,2.18,.44,3.85,1.32,5.01,.88,1.16,2.08,1.75,3.62,1.75Z"/></g></svg>